<svg xmlns="http://www.w3.org/2000/svg" viewBox="0 0 512 512" width="512" height="512">
  <!-- Background -->
  <rect width="512" height="512" fill="#FFFFFF"/>
  <!-- Stripes -->
  <g>
    <rect y="39.38" width="512" height="39.38" fill="#B22234"/>
    <rect y="118.15" width="512" height="39.38" fill="#B22234"/>
    <rect y="196.92" width="512" height="39.38" fill="#B22234"/>
    <rect y="275.69" width="512" height="39.38" fill="#B22234"/>
    <rect y="354.46" width="512" height="39.38" fill="#B22234"/>
    <rect y="433.23" width="512" height="39.38" fill="#B22234"/>
  </g>
  <!-- Blue field -->
  <rect width="256" height="275.69" fill="#3C3B6E"/>
  <!-- Stars -->
  <g fill="#FFFFFF">
    <!-- Row 1 -->
    <circle cx="24" cy="24" r="8"/>
    <circle cx="72" cy="24" r="8"/>
    <circle cx="120" cy="24" r="8"/>
    <circle cx="168" cy="24" r="8"/>
    <circle cx="216" cy="24" r="8"/>
    <!-- Row 2 -->
    <circle cx="48" cy="48" r="8"/>
    <circle cx="96" cy="48" r="8"/>
    <circle cx="144" cy="48" r="8"/>
    <circle cx="192" cy="48" r="8"/>
    <circle cx="240" cy="48" r="8"/>
    <!-- Row 3 -->
    <circle cx="24" cy="72" r="8"/>
    <circle cx="72" cy="72" r="8"/>
    <circle cx="120" cy="72" r="8"/>
    <circle cx="168" cy="72" r="8"/>
    <circle cx="216" cy="72" r="8"/>
    <!-- Row 4 -->
    <circle cx="48" cy="96" r="8"/>
    <circle cx="96" cy="96" r="8"/>
    <circle cx="144" cy="96" r="8"/>
    <circle cx="192" cy="96" r="8"/>
    <circle cx="240" cy="96" r="8"/>
    <!-- Row 5 -->
    <circle cx="24" cy="120" r="8"/>
    <circle cx="72" cy="120" r="8"/>
    <circle cx="120" cy="120" r="8"/>
    <circle cx="168" cy="120" r="8"/>
    <circle cx="216" cy="120" r="8"/>
    <!-- Row 6 -->
    <circle cx="48" cy="144" r="8"/>
    <circle cx="96" cy="144" r="8"/>
    <circle cx="144" cy="144" r="8"/>
    <circle cx="192" cy="144" r="8"/>
    <circle cx="240" cy="144" r="8"/>
    <!-- Row 7 -->
    <circle cx="24" cy="168" r="8"/>
    <circle cx="72" cy="168" r="8"/>
    <circle cx="120" cy="168" r="8"/>
    <circle cx="168" cy="168" r="8"/>
    <circle cx="216" cy="168" r="8"/>
    <!-- Row 8 -->
    <circle cx="48" cy="192" r="8"/>
    <circle cx="96" cy="192" r="8"/>
    <circle cx="144" cy="192" r="8"/>
    <circle cx="192" cy="192" r="8"/>
    <circle cx="240" cy="192" r="8"/>
    <!-- Row 9 -->
    <circle cx="24" cy="216" r="8"/>
    <circle cx="72" cy="216" r="8"/>
    <circle cx="120" cy="216" r="8"/>
    <circle cx="168" cy="216" r="8"/>
    <circle cx="216" cy="216" r="8"/>
  </g>
</svg>